2014001_C1_02_grf
version=1
nRows=12
nColumns=19
inDegrees=no
endheader
time	ground_force_1_vx	ground_force_1_vy	ground_force_1_vz	ground_force_1_px	ground_force_1_py	ground_force_1_pz	ground_force_1_mx	ground_force_1_my	ground_force_1_mz	ground_force_2_vx	ground_force_2_vy	ground_force_2_vz	ground_force_2_px	ground_force_2_py	ground_force_2_pz	ground_force_2_mx	ground_force_2_my	ground_force_2_mz
      2.13000000	      0.00000000	      0.00000000	      0.00000000	      0.00000000	      0.00000000	      0.00000000	      0.00000000	      0.00000000	      0.00000000	     14.52039927	    650.03141016	     -9.20420475	      0.14794413	     -0.00200000	      0.66596018	      0.00000000	      1.05021812	      0.00000000
      2.13100000	      0.00000000	      0.00000000	      0.00000000	      0.00000000	      0.00000000	      0.00000000	      0.00000000	      0.00000000	      0.00000000	     14.54745308	    649.97591823	     -9.08866022	      0.14794058	     -0.00200000	      0.66598848	      0.00000000	      1.05449917	     -0.00000000
      2.13200000	      0.00000000	      0.00000000	      0.00000000	      0.00000000	      0.00000000	      0.00000000	      0.00000000	      0.00000000	      0.00000000	     14.57563639	    649.91234243	     -8.97155078	      0.14793741	     -0.00200000	      0.66601662	      0.00000000	      1.05896324	      0.00000000
      2.13300000	      0.00000000	      0.00000000	      0.00000000	      0.00000000	      0.00000000	      0.00000000	      0.00000000	      0.00000000	      0.00000000	     14.60527480	    649.83807504	     -8.85227504	      0.14793481	     -0.00200000	      0.66604442	      0.00000000	      1.06368221	      0.00000000
      2.13400000	      0.00000000	      0.00000000	      0.00000000	      0.00000000	      0.00000000	      0.00000000	      0.00000000	      0.00000000	      0.00000000	     14.63610530	    649.75478500	     -8.73109745	      0.14793269	     -0.00200000	      0.66607185	      0.00000000	      1.06862681	      0.00000000
      2.13500000	      0.00000000	      0.00000000	      0.00000000	      0.00000000	      0.00000000	      0.00000000	      0.00000000	      0.00000000	      0.00000000	     14.66844305	    649.65955168	     -8.60733278	      0.14793122	     -0.00200000	      0.66609865	      0.00000000	      1.07388074	      0.00000000
      2.13600000	      0.00000000	      0.00000000	      0.00000000	      0.00000000	      0.00000000	      0.00000000	      0.00000000	      0.00000000	      0.00000000	     14.70199078	    649.55430478	     -8.48133015	      0.14793031	     -0.00200000	      0.66612482	      0.00000000	      1.07940178	      0.00000000
      2.13700000	      0.00000000	      0.00000000	      0.00000000	      0.00000000	      0.00000000	      0.00000000	      0.00000000	      0.00000000	      0.00000000	     14.73703608	    649.43591505	     -8.35233224	      0.14793014	     -0.00200000	      0.66615006	      0.00000000	      1.08527829	     -0.00000000
      2.13800000	      0.00000000	      0.00000000	      0.00000000	      0.00000000	      0.00000000	      0.00000000	      0.00000000	      0.00000000	      0.00000000	     14.77326304	    649.30667728	     -8.22078958	      0.14793062	     -0.00200000	      0.66617444	      0.00000000	      1.09145510	      0.00000000
      2.13900000	      0.00000000	      0.00000000	      0.00000000	      0.00000000	      0.00000000	      0.00000000	      0.00000000	      0.00000000	      0.00000000	     14.81093839	    649.16348830	     -8.08588956	      0.14793200	     -0.00200000	      0.66619766	     -0.00000000	      1.09802730	      0.00000000
      2.14000000	      0.00000000	      0.00000000	      0.00000000	      0.00000000	      0.00000000	      0.00000000	      0.00000000	      0.00000000	      0.00000000	     14.84974474	    649.00882542	     -7.94817237	      0.14793413	     -0.00200000	      0.66621982	      0.00000000	      1.10493347	      0.00000000
      2.14100000	      0.00000000	      0.00000000	      0.00000000	      0.00000000	      0.00000000	      0.00000000	      0.00000000	      0.00000000	      0.00000000	     14.88992274	    648.83966371	     -7.80678224	      0.14793730	     -0.00200000	      0.66624057	      0.00000000	      1.11227853	      0.00000000
